<svg xmlns="http://www.w3.org/2000/svg" width="18" height="18" viewBox="0 0 18 18" fill="white">
  <g>
    <path d="M10.9029 7.6285L17.526 0.0990708L17.7451 -0.15H17.4133H15.8254H15.7576L15.7128 -0.0990717L10.0203 6.37235L5.48266 -0.0862309L5.43785 -0.15H5.35992H0H-0.288707L-0.122736 0.0862317L6.83675 9.99186L-0.112624 17.8917L-0.331732 18.1408H0H1.58799H1.65582L1.70062 18.0898L7.71916 11.2478L12.5173 18.077L12.5621 18.1408H12.6401H18H18.2887L18.1227 17.9045L10.9029 7.6285ZM13.4643 16.7248L8.68747 10.0427V10.0423L8.6595 10.0032L7.94748 9.00715L2.45177 1.31911H4.52207L9.04915 7.65229L9.17118 7.56506L9.04915 7.6523L9.76117 8.6483L15.5346 16.7248H13.4643Z"
      fill="white" stroke="currentColor" stroke-width="0.3" />
  </g>
</svg>
