<?xml version="1.0" encoding="UTF-8"?>
<svg xmlns="http://www.w3.org/2000/svg" width="12" height="9" viewBox="0 0 12 9" fill="none">
  <path
    fill-rule="evenodd"
    clip-rule="evenodd"
    d="M10.6882 0.250908C11.2049 0.389204 11.6109 0.795203 11.7492 1.31184C11.9991 2.24731 12.0001 4.20025 12.0001 4.20025C12.0001 4.20025 12.0001 6.15319 11.7492 7.08867C11.6109 7.6053 11.2049 8.0113 10.6882 8.14957C9.75281 8.40049 6.00003 8.40049 6.00003 8.40049C6.00003 8.40049 2.2473 8.40049 1.31183 8.14957C0.7952 8.0113 0.389203 7.6053 0.250907 7.08867C0 6.15319 0 4.20025 0 4.20025C0 4.20025 0 2.24731 0.250907 1.31184C0.389203 0.795203 0.7952 0.389204 1.31183 0.250908C2.2473 0 6.00003 0 6.00003 0C6.00003 0 9.75281 0 10.6882 0.250908ZM7.91836 4.20535L4.80078 6.00516V2.40552L7.91836 4.20535Z"
    fill="white"
  />
</svg>
